PathFileType	4	(X/Y/Z)	E:\Qualisys_Data\Carbon_Farble_Plate\Data\Amateur_Runner\S2\T3\S2T3V23_c3d.trc
DataRate	CameraRate	NumFrames	NumMarkers	Units	OrigDataRate	OrigDataStartFrame	OrigNumFrames
200.000000	200.000000	4	39	mm	200.000000	237	317
Frame#	Time	LSHO			RSHO			LICST			RICST			LASIS			LHEEL			RASIS			LTROC			RTROC			SACR			LTH1			LSK4			LTH2			LTH3			RHM5			LSK2			LTH4			RTH1			LTOE			RTH2			RTH3			RTH4			LLEP			RLEP			LSK1			LSK3			RSK1			LHM5			RSK2			LFT1			RSK3			RSK4			LLME			RLME			RTOE			RHEEL			RFT1			RFT2			LFT2			
		X1	Y1	Z1	X2	Y2	Z2	X3	Y3	Z3	X4	Y4	Z4	X5	Y5	Z5	X6	Y6	Z6	X7	Y7	Z7	X8	Y8	Z8	X9	Y9	Z9	X10	Y10	Z10	X11	Y11	Z11	X12	Y12	Z12	X13	Y13	Z13	X14	Y14	Z14	X15	Y15	Z15	X16	Y16	Z16	X17	Y17	Z17	X18	Y18	Z18	X19	Y19	Z19	X20	Y20	Z20	X21	Y21	Z21	X22	Y22	Z22	X23	Y23	Z23	X24	Y24	Z24	X25	Y25	Z25	X26	Y26	Z26	X27	Y27	Z27	X28	Y28	Z28	X29	Y29	Z29	X30	Y30	Z30	X31	Y31	Z31	X32	Y32	Z32	X33	Y33	Z33	X34	Y34	Z34	X35	Y35	Z35	X36	Y36	Z36	X37	Y37	Z37	X38	Y38	Z38	X39	Y39	Z39	

238	1.185	1430.5205078125	1471.744873046875	-446.5080261230469	1527.839721679688	1463.344360351562	-158.1153717041016	1454.759887695312	1008.040161132812	-423.6495056152344	1498.729125976562	1002.136169433594	-127.1176071166992	1516.932006835938	962.3304443359376	-407.8589172363281	1628.119262695312	70.6275634765625	-304.4374694824219	1553.282470703125	953.4082641601562	-152.6190032958984	1399.078369140625	881.8176879882812	-423.7230224609375	1397.45458984375	914.9136962890624	-110.5344161987305	1379.923461914062	1043.785522460938	-259.5191040039062	1588.646118164062	662.3030395507812	-437.0908813476562	1594.61865234375	278.7166137695312	-397.4988403320312	1509.677612304688	632.9539794921875	-431.5032958984375	1624.1611328125	571.0341796875	-402.0977478027344	878.1727905273438	368.6401062011719	-123.4686889648438	1578.963256835938	375.3908081054688	-413.0753173828125	1543.473510742188	543.3959350585938	-399.3424377441406	1453.452270507812	632.140380859375	-100.2053070068359	1852.291015625	177.1662292480469	-345.2211608886719	1379.876586914062	656.3836059570312	-99.97516632080078	1422.49365234375	536.154296875	-105.4884262084961	1346.998901367188	563.6033935546875	-112.6388092041016	1598.880493164062	517.14697265625	-399.4105529785156	1358.629760742188	526.1908569335938	-103.5406951904297	1655.326171875	389.7517700195312	-401.2024536132812	1672.149291992188	291.9798889160156	-389.9031372070312	1256.461791992188	469.3893432617188	-101.2896881103516	1806.394165039062	119.8296737670898	-395.7334899902344	1246.338500976562	548.5672607421875	-110.0796737670898	1650.405029296875	58.04543304443359	-274.0582275390625	1155.710815429688	454.8053894042969	-112.8315200805664	1149.313354492188	533.2566528320312	-125.3911743164062	1675.790283203125	109.2537155151367	-363.4663391113281	970.58447265625	466.8983154296875	-157.8011932373047	884.2047119140625	287.685791015625	-158.5579223632812	984.8690795898438	508.6583251953125	-228.3984832763672	963.2750854492188	495.6865844726562	-262.1160278320312	957.9335327148438	523.7112426757812	-217.3004760742188	1650.16162109375	44.4375	-325.2346801757812
239	1.19	1451.023315429688	1466.44873046875	-448.3333740234375	1547.02294921875	1458.960571289062	-158.7986907958984	1473.438354492188	1004.068908691406	-424.3955688476562	1518.710327148438	997.7825317382812	-127.1906661987305	1535.46875	958.0148315429688	-408.5398254394531	1639.180541992188	67.39422607421875	-303.6892700195312	1573.01025390625	948.9390869140624	-153.1539154052734	1417.948608398438	877.343994140625	-423.34375	1418.121948242188	909.259033203125	-110.2596893310547	1399.345092773438	1039.2939453125	-259.8521423339844	1610.594604492188	660.7769775390625	-435.2834777832031	1609.23193359375	274.7398376464844	-396.75341796875	1531.462280273438	632.3348999023438	-430.629638671875	1645.001098632812	568.792724609375	-400.6750793457031	901.6345825195312	376.8440246582031	-123.7357559204102	1595.428955078125	371.301025390625	-412.1952209472656	1564.369506835938	541.8507690429688	-399.4927062988281	1478.20556640625	627.1259765625	-99.13091278076172	1864.804931640625	169.3254547119141	-342.6738586425781	1403.630126953125	650.64404296875	-99.02134704589844	1448.636352539062	530.6102294921875	-104.1845703125	1372.840942382812	557.2166748046875	-111.6844787597656	1619.414916992188	514.4979858398438	-398.5418395996094	1384.801391601562	520.4827880859375	-101.8720703125	1672.37353515625	384.4605712890625	-401.1648559570312	1687.58349609375	286.4179077148438	-389.1171264648438	1282.140014648438	466.2422180175781	-100.2431259155273	1818.61083984375	113.324333190918	-394.0528259277344	1274.448608398438	545.3307495117188	-109.6386642456055	1661.095336914062	54.37084197998047	-273.0381469726562	1181.357788085938	453.9777221679688	-113.0087051391602	1176.964965820312	532.207275390625	-125.7151489257812	1687.912353515625	103.7513809204102	-362.6589050292969	997.013671875	472.6788024902344	-157.5025939941406	906.1859741210938	294.8186645507812	-157.6348724365234	1013.64013671875	512.06298828125	-229.9059295654297	992.1326904296876	499.5389404296875	-264.8683471679688	986.8401489257812	528.2413940429688	-219.2476501464844	1660.436767578125	40.33446502685547	-324.1744384765625
240	1.195	1471.592407226562	1460.617919921875	-450.0677490234375	1566.198608398438	1454.2705078125	-159.7507629394531	1491.871704101562	999.5711059570312	-424.9495849609375	1538.229125976562	992.6903686523438	-128.4650573730469	1554.410278320312	954.1080322265624	-409.1680908203125	1646.408081054688	72.19486999511719	-302.7958984375	1592.653564453125	944.4342041015624	-154.0791473388672	1436.5263671875	872.3275756835938	-422.9996948242188	1438.251342773438	903.1695556640624	-110.0751724243164	1418.643798828125	1033.9716796875	-259.8627319335938	1632.050903320312	658.9000854492188	-432.867431640625	1623.97021484375	270.3707580566406	-395.6828308105469	1553.21875	631.1405639648438	-429.084228515625	1665.788452148438	566.53076171875	-399.2100524902344	926.7842407226562	384.3606872558594	-124.0413818359375	1611.521728515625	367.6539916992188	-411.5765380859375	1584.991333007812	540.1675415039062	-399.5503234863281	1502.75927734375	622.1110229492188	-98.63368225097656	1878.207885742188	158.8696441650391	-340.1062927246094	1428.118530273438	644.203857421875	-98.31532287597656	1474.649169921875	525.2841186523438	-102.8081130981445	1398.617065429688	550.1201782226562	-110.0688247680664	1639.554443359375	511.3047485351562	-397.5501098632812	1411.568603515625	514.0782470703125	-100.6954650878906	1688.986083984375	378.6053771972656	-400.8360900878906	1702.156982421875	280.4161682128906	-388.9367370605469	1308.62158203125	462.5366821289062	-99.85250091552734	1828.933349609375	103.563835144043	-391.4467468261719	1303.022705078125	541.9308471679688	-109.6277008056641	1667.859008789062	56.08497619628906	-272.3813781738281	1207.357543945312	453.2796936035156	-112.758544921875	1205.1953125	531.4215698242188	-126.1563339233398	1698.924072265625	98.68529510498048	-361.8243713378906	1024.20751953125	477.0237731933594	-158.6894989013672	929.5204467773438	301.9727783203125	-157.1336822509766	1042.49853515625	514.9827880859375	-231.1717987060547	1020.927185058594	501.9339904785156	-264.4237060546875	1015.806945800781	532.1260375976562	-221.0282440185547	1662.575317382812	41.70389556884766	-323.0939636230469
241	1.2	1492.233642578125	1454.86572265625	-451.9326477050781	1585.375854492188	1449.410888671875	-160.6656188964844	1510.261352539062	995.0496215820312	-425.1744689941406	1557.474975585938	987.6756591796876	-128.6341705322266	1572.814331054688	949.586181640625	-410.1216125488281	1655.756225585938	74.78839874267578	-303.3342895507812	1612.208618164062	939.4956665039062	-154.7168273925781	1454.698120117188	867.0574340820312	-423.2993774414062	1459.012939453125	897.1033935546875	-109.6743011474609	1437.902221679688	1029.311889648438	-260.1046752929688	1653.642211914062	657.2506713867188	-430.0683288574219	1638.130493164062	266.1280822753906	-395.054931640625	1575.617797851562	629.6840209960938	-426.9982299804688	1686.695678710938	563.935302734375	-397.6830749511719	951.8798828125	391.4135437011719	-124.7608184814453	1627.727172851562	363.3913269042969	-410.8132629394531	1606.168823242188	537.9420776367188	-399.1217041015625	1527.80712890625	616.8480224609375	-97.75720977783205	1890.764770507812	146.4183197021484	-338.2433776855469	1452.702270507812	637.94970703125	-97.58807373046876	1501.028686523438	519.8453369140625	-101.6794662475586	1424.60498046875	543.4555053710938	-109.0330276489258	1659.63427734375	508.0956726074219	-396.3561706542969	1438.648071289062	507.6612854003906	-99.75132751464844	1705.405395507812	372.7396850585938	-400.7251892089844	1716.791259765625	274.5150146484375	-388.5928649902344	1335.54150390625	458.8831176757812	-98.96393585205078	1838.423706054688	92.88031005859376	-389.9815979003906	1331.43994140625	537.92333984375	-109.2878799438477	1674.333984375	54.4911003112793	-272.0185546875	1234.197387695312	452.2138671875	-112.3449478149414	1233.7529296875	529.9927368164062	-126.3128356933594	1709.305053710938	93.40101623535156	-360.7008361816406	1052.071044921875	481.0121459960938	-159.6518249511719	953.734619140625	308.0451354980469	-157.5420379638672	1071.933227539062	517.9252319335938	-232.6615905761719	1050.360717773438	504.7468872070312	-265.7145385742188	1045.405395507812	535.271484375	-223.0237884521484	1666.9306640625	42.55110168457031	-324.2715148925781
